<?xml version="1.0" encoding="UTF-8"?>
<svg width="391px" height="208px" viewBox="0 0 391 208" version="1.1" xmlns="http://www.w3.org/2000/svg" xmlns:xlink="http://www.w3.org/1999/xlink">
    <!-- Generator: Sketch 59.1 (86144) - https://sketch.com -->
    <title>EM-Logo</title>
    <desc>Created with Sketch.</desc>
    <g id="EM-Logo" stroke="none" stroke-width="1" fill="none" fill-rule="evenodd">
        <g fill-rule="nonzero">
            <rect id="Rectangle" fill="#FFFFFF" x="1.6" y="2" width="212.2" height="83.8"></rect>
            <path d="M207.7,10.8 L203.2,24.7 C199.6,23 194.6,21.5 187.7,21.5 C180.3,21.5 174.2,22.6 174.2,28.2 C174.2,38.1 201.5,34.4 201.5,55.6 C201.5,74.9 183.5,79.9 167.2,79.9 C160,79.9 151.6,78.2 145.5,76.3 L149.9,62.1 C153.6,64.5 161.1,66.1 167.2,66.1 C173,66.1 182.2,65 182.2,57.8 C182.2,46.6 154.9,50.8 154.9,31.1 C154.9,13.1 170.8,7.7 186.2,7.7 C194.8,7.7 203,8.6 207.7,10.8 M153.6,8.9 L139,78.8 L120.2,78.8 L126.4,48.9 L104.1,48.9 L97.9,78.8 L79.1,78.8 L93.7,8.9 L112.5,8.9 L107,35.7 L129.2,35.7 L134.7,8.9 C134.7,8.9 153.6,8.9 153.6,8.9 Z M86.8,8.9 L71.9,78.8 L48.5,78.8 L33.8,30.4 L33.6,30.4 L23.8,78.8 L6.2,78.8 L21.2,8.9 L44.6,8.9 L59,57.4 L59.2,57.4 L69.1,8.9 C69.1,8.9 86.8,8.9 86.8,8.9 Z M215.8,0.5 L0.1,0.5 L0.1,87.4 L215.8,87.4 L215.8,0.5 L215.8,0.5 Z" id="Shape" fill="#005EB8"></path>
            <polygon id="Path" fill="#231F20" points="0 112.4 25 112.4 25 119.1 8.5 119.1 8.5 129.5 23.6 129.5 23.6 136.2 8.5 136.2 8.5 148 25.1 148 25.1 154.7 0 154.7"></polygon>
            <path d="M34.3,125.1 C37.5,123.6 41.7,122.7 45.2,122.7 C54.7,122.7 58.7,126.6 58.7,135.9 L58.7,139.9 C58.7,143.1 58.8,145.4 58.8,147.7 C58.9,150.1 59,152.2 59.2,154.7 L52,154.7 C51.7,153.1 51.7,151 51.6,150 L51.5,150 C49.6,153.5 45.6,155.4 41.9,155.4 C36.4,155.4 31,152.1 31,146.1 C31,141.4 33.2,138.7 36.3,137.2 C39.4,135.7 43.4,135.4 46.8,135.4 L51.3,135.4 C51.3,130.4 49.1,128.7 44.3,128.7 C40.8,128.7 37.4,130 34.7,132.1 L34.3,125.1 Z M43.9,149.5 C46.4,149.5 48.3,148.4 49.6,146.7 C50.9,144.9 51.3,142.7 51.3,140.3 L47.8,140.3 C44.2,140.3 38.8,140.9 38.8,145.7 C38.7,148.3 41,149.5 43.9,149.5 Z" id="Shape" fill="#231F20"></path>
            <path d="M85.2,130 C82.7,129.2 80.9,128.7 77.9,128.7 C75.7,128.7 73.1,129.5 73.1,132.2 C73.1,137.2 87.2,134 87.2,145.3 C87.2,152.6 80.7,155.5 74.1,155.5 C71,155.5 67.9,155 64.9,154.2 L65.4,147.5 C67.9,148.8 70.6,149.6 73.4,149.6 C75.5,149.6 78.7,148.8 78.7,145.8 C78.7,139.7 64.6,143.9 64.6,132.6 C64.6,125.9 70.5,122.9 76.8,122.9 C80.6,122.9 83.1,123.5 85.7,124.1 L85.2,130 Z" id="Path" fill="#231F20"></path>
            <path d="M96.2,129.4 L90.2,129.4 L90.2,123.5 L96.2,123.5 L96.2,117.3 L104.3,114.7 L104.3,123.6 L111.5,123.6 L111.5,129.5 L104.3,129.5 L104.3,144 C104.3,146.7 105,149.2 108.1,149.2 C109.6,149.2 110.9,148.9 111.8,148.4 L112,154.8 C110.3,155.3 108.4,155.5 106,155.5 C99.6,155.5 96.1,151.6 96.1,145.4 L96.2,129.4 L96.2,129.4 Z" id="Path" fill="#231F20"></path>
            <polygon id="Path" fill="#231F20" points="134.7 112.4 148.3 112.4 158.4 144.5 158.5 144.5 168.6 112.4 182.2 112.4 182.2 154.7 174 154.7 174 119.8 173.9 119.8 162.5 154.7 154.4 154.7 143 119.8 142.9 119.9 142.9 154.7 134.8 154.7"></polygon>
            <path d="M191.4,110 L199.5,110 L199.5,117.8 L191.4,117.8 L191.4,110 Z M191.4,123.5 L199.5,123.5 L199.5,154.7 L191.4,154.7 L191.4,123.5 Z" id="Shape" fill="#231F20"></path>
            <path d="M228.9,151.2 L228.8,151.2 C226.4,154.2 223,155.4 219.2,155.4 C209.6,155.4 206.1,147.5 206.1,139 C206.1,130.4 209.6,122.8 219.2,122.8 C223.3,122.8 226.1,124.2 228.5,127.2 L228.6,127.2 L228.6,109.3 L236.7,109.3 L236.7,154.8 L228.8,154.8 L228.8,151.2 L228.9,151.2 Z M221.4,149.1 C226.8,149.1 228.6,143.4 228.6,139 C228.6,134.6 226.5,129.1 221.3,129.1 C216,129.1 214.6,134.9 214.6,139 C214.6,143.3 216.1,149.1 221.4,149.1 Z" id="Shape" fill="#231F20"></path>
            <polygon id="Path" fill="#231F20" points="245.3 109.2 253.4 109.2 253.4 154.7 245.3 154.7"></polygon>
            <path d="M263.4,125.1 C266.6,123.6 270.8,122.7 274.3,122.7 C283.8,122.7 287.8,126.6 287.8,135.9 L287.8,139.9 C287.8,143.1 287.9,145.4 287.9,147.7 C288,150.1 288.1,152.2 288.3,154.7 L281,154.7 C280.7,153.1 280.7,151 280.6,150 L280.5,150 C278.6,153.5 274.6,155.4 270.9,155.4 C265.4,155.4 260,152.1 260,146.1 C260,141.4 262.2,138.7 265.3,137.2 C268.4,135.7 272.4,135.4 275.8,135.4 L280.3,135.4 C280.3,130.4 278.1,128.7 273.3,128.7 C269.8,128.7 266.4,130 263.7,132.1 L263.4,125.1 Z M272.9,149.5 C275.4,149.5 277.3,148.4 278.6,146.7 C279.9,144.9 280.3,142.7 280.3,140.3 L276.8,140.3 C273.2,140.3 267.8,140.9 267.8,145.7 C267.8,148.3 270,149.5 272.9,149.5 Z" id="Shape" fill="#231F20"></path>
            <path d="M295.7,123.5 L303.4,123.5 L303.4,127.7 L303.5,127.7 C306,124.1 309.5,122.7 313.7,122.7 C321.1,122.7 324.3,127.9 324.3,134.9 L324.3,154.6 L316.2,154.6 L316.2,138 C316.2,134.2 316.1,129 310.9,129 C305,129 303.7,135.4 303.7,139.4 L303.7,154.7 L295.6,154.7 L295.7,123.5 L295.7,123.5 Z" id="Path" fill="#231F20"></path>
            <path d="M353.5,151.2 L353.4,151.2 C351,154.2 347.6,155.4 343.8,155.4 C334.2,155.4 330.7,147.5 330.7,139 C330.7,130.4 334.2,122.8 343.8,122.8 C347.9,122.8 350.7,124.2 353.1,127.2 L353.2,127.2 L353.2,109.3 L361.3,109.3 L361.3,154.8 L353.4,154.8 L353.4,151.2 L353.5,151.2 Z M346.1,149.1 C351.5,149.1 353.3,143.4 353.3,139 C353.3,134.6 351.2,129.1 346,129.1 C340.7,129.1 339.3,134.9 339.3,139 C339.2,143.3 340.8,149.1 346.1,149.1 Z" id="Shape" fill="#231F20"></path>
            <path d="M388.3,130 C385.8,129.2 384,128.7 381,128.7 C378.8,128.7 376.2,129.5 376.2,132.2 C376.2,137.2 390.3,134 390.3,145.3 C390.3,152.6 383.8,155.5 377.2,155.5 C374.1,155.5 371,155 368,154.2 L368.5,147.5 C371,148.8 373.7,149.6 376.5,149.6 C378.6,149.6 381.8,148.8 381.8,145.8 C381.8,139.7 367.7,143.9 367.7,132.6 C367.7,125.9 373.6,122.9 379.9,122.9 C383.7,122.9 386.2,123.5 388.8,124.1 L388.3,130 Z" id="Path" fill="#231F20"></path>
            <g id="Group" transform="translate(0.000000, 176.000000)" fill="#005EB8">
                <path d="M21.7,30.2 C19.7,30.7 17.5,31.1 15.3,31.1 C6.3,31.1 0,26.6 0,17.1 C0,7.5 5.8,2.2 15.3,2.2 C17.1,2.2 19.6,2.6 21.6,3.4 L21.2,8.1 C19.1,6.9 17.2,6.6 15.2,6.6 C9.4,6.6 5.8,11 5.8,16.7 C5.8,22.4 9.3,26.7 15.3,26.7 C17.5,26.7 20.1,26.2 21.4,25.5 L21.7,30.2 Z" id="Path"></path>
                <polygon id="Path" points="25.5 0.6 30.9 0.6 30.9 30.6 25.5 30.6"></polygon>
                <path d="M36.6,1.2 L42,1.2 L42,6.3 L36.6,6.3 L36.6,1.2 Z M36.6,10 L42,10 L42,30.6 L36.6,30.6 L36.6,10 Z" id="Shape"></path>
                <path d="M47.6,10 L52.7,10 L52.7,12.8 L52.8,12.8 C54.5,10.4 56.8,9.5 59.6,9.5 C64.5,9.5 66.6,12.9 66.6,17.6 L66.6,30.6 L61.2,30.6 L61.2,19.6 C61.2,17.1 61.2,13.7 57.7,13.7 C53.8,13.7 53,17.9 53,20.5 L53,30.6 L47.6,30.6 L47.6,10 L47.6,10 Z" id="Path"></path>
                <path d="M72.2,1.2 L77.6,1.2 L77.6,6.3 L72.2,6.3 L72.2,1.2 Z M72.2,10 L77.6,10 L77.6,30.6 L72.2,30.6 L72.2,10 Z" id="Shape"></path>
                <path d="M96.5,14.5 C95.5,14.1 94.5,13.7 92.9,13.7 C89.6,13.7 87.5,16.3 87.5,20.2 C87.5,24 89.3,26.9 93.1,26.9 C94.6,26.9 96.3,26.3 97.2,25.9 L97.4,30.3 C95.8,30.8 94.2,31 92,31 C85.2,31 81.8,26.4 81.8,20.1 C81.8,14.1 85.3,9.4 91.8,9.4 C94,9.4 95.5,9.6 97,10.1 L96.5,14.5 Z" id="Path"></path>
                <path d="M101.9,11.1 C104,10.1 106.8,9.5 109.1,9.5 C115.4,9.5 118,12.1 118,18.2 L118,20.8 C118,22.9 118,24.4 118.1,26 C118.1,27.6 118.2,29 118.3,30.6 L113.6,30.6 C113.4,29.5 113.4,28.2 113.4,27.5 L113.3,27.5 C112.1,29.8 109.4,31.1 106.9,31.1 C103.3,31.1 99.7,28.9 99.7,25 C99.7,21.9 101.2,20.1 103.2,19.1 C105.2,18.1 107.9,17.9 110.1,17.9 L113.1,17.9 C113.1,14.6 111.6,13.5 108.5,13.5 C106.2,13.5 103.9,14.4 102.1,15.7 L101.9,11.1 Z M108.1,27.2 C109.7,27.2 111,26.5 111.9,25.4 C112.8,24.2 113,22.8 113,21.2 L110.7,21.2 C108.3,21.2 104.7,21.6 104.7,24.8 C104.7,26.4 106.2,27.2 108.1,27.2 Z" id="Shape"></path>
                <polygon id="Path" points="123.3 0.6 128.7 0.6 128.7 30.6 123.3 30.6"></polygon>
                <path d="M160.9,7.8 C159.1,7 157.2,6.6 155.2,6.6 C153.3,6.6 150.8,7.4 150.8,10.5 C150.8,15.3 163,13.3 163,22.7 C163,28.8 158.2,31.1 152.5,31.1 C149.5,31.1 148.1,30.7 145.3,30 L145.8,25 C147.7,26 149.9,26.7 152.1,26.7 C154.2,26.7 157.1,25.6 157.1,23.1 C157.1,17.8 144.9,20 144.9,10.7 C144.9,4.5 149.7,2.2 154.7,2.2 C157.1,2.2 159.3,2.5 161.4,3.2 L160.9,7.8 Z" id="Path"></path>
                <path d="M184.2,29.5 C182.2,30.6 180,31.1 177.1,31.1 C170.3,31.1 166.3,27.2 166.3,20.4 C166.3,14.4 169.5,9.5 175.9,9.5 C183.5,9.5 185.7,14.7 185.7,21.9 L171.5,21.9 C171.7,25.2 174.1,27.1 177.4,27.1 C180,27.1 182.2,26.1 184.2,25 L184.2,29.5 L184.2,29.5 Z M180.6,18.3 C180.4,15.7 179.2,13.5 176.2,13.5 C173.2,13.5 171.7,15.6 171.4,18.3 L180.6,18.3 Z" id="Shape"></path>
                <path d="M189.9,10 L195,10 L195,12.8 L195.1,12.8 C196.8,10.4 199.1,9.5 201.9,9.5 C206.8,9.5 208.9,12.9 208.9,17.6 L208.9,30.6 L203.5,30.6 L203.5,19.6 C203.5,17.1 203.5,13.7 200,13.7 C196.1,13.7 195.3,17.9 195.3,20.5 L195.3,30.6 L189.9,30.6 L189.9,10 L189.9,10 Z" id="Path"></path>
                <path d="M215.3,11.1 C217.4,10.1 220.2,9.5 222.5,9.5 C228.8,9.5 231.4,12.1 231.4,18.2 L231.4,20.8 C231.4,22.9 231.4,24.4 231.5,26 C231.5,27.6 231.6,29 231.7,30.6 L227,30.6 C226.8,29.5 226.8,28.2 226.8,27.5 L226.7,27.5 C225.5,29.8 222.8,31.1 220.3,31.1 C216.7,31.1 213.1,28.9 213.1,25 C213.1,21.9 214.6,20.1 216.6,19.1 C218.6,18.1 221.3,17.9 223.5,17.9 L226.5,17.9 C226.5,14.6 225,13.5 221.9,13.5 C219.6,13.5 217.3,14.4 215.5,15.7 L215.3,11.1 Z M221.5,27.2 C223.1,27.2 224.4,26.5 225.3,25.4 C226.2,24.2 226.4,22.8 226.4,21.2 L224.1,21.2 C221.7,21.2 218.1,21.6 218.1,24.8 C218.1,26.4 219.6,27.2 221.5,27.2 Z" id="Shape"></path>
                <path d="M238.3,14 L234.3,14 L234.3,10 L238.3,10 L238.3,5.9 L243.7,4.2 L243.7,10 L248.5,10 L248.5,13.9 L243.7,13.9 L243.7,23.5 C243.7,25.3 244.2,26.9 246.2,26.9 C247.2,26.9 248.1,26.7 248.6,26.3 L248.8,30.5 C247.7,30.8 246.4,31 244.8,31 C240.6,31 238.3,28.4 238.3,24.3 L238.3,14 L238.3,14 Z" id="Path"></path>
                <path d="M268.7,29.5 C266.7,30.6 264.5,31.1 261.6,31.1 C254.8,31.1 250.8,27.2 250.8,20.4 C250.8,14.4 254,9.5 260.4,9.5 C268,9.5 270.2,14.7 270.2,21.9 L256,21.9 C256.2,25.2 258.6,27.1 261.9,27.1 C264.5,27.1 266.7,26.1 268.7,25 L268.7,29.5 L268.7,29.5 Z M265.1,18.3 C264.9,15.7 263.7,13.5 260.7,13.5 C257.7,13.5 256.2,15.6 255.9,18.3 L265.1,18.3 Z" id="Shape"></path>
            </g>
        </g>
    </g>
</svg>